<svg width="247" height="266" viewBox="0 0 247 266" fill="none" xmlns="http://www.w3.org/2000/svg">
<g style="mix-blend-mode:multiply">
<circle cx="123.658" cy="142.65" r="122.787" fill="#00539B"/>
</g>
<mask id="mask0_662_10449" style="mask-type:alpha" maskUnits="userSpaceOnUse" x="0" y="19" width="247" height="247">
<g style="mix-blend-mode:multiply">
<circle cx="123.658" cy="142.648" r="122.787" fill="#00539B"/>
</g>
</mask>
<g mask="url(#mask0_662_10449)">
<path d="M27.9563 19.8606C27.9563 8.89078 36.8491 -0.00195312 47.8189 -0.00195312H137.085C142.943 -0.00195312 148.502 2.58407 152.276 7.06459L181.582 41.8572L214.852 82.4091C217.766 85.9609 219.359 90.4132 219.359 95.0075V256.406C219.359 267.375 210.466 276.268 199.497 276.268H47.8189C36.8491 276.268 27.9563 267.375 27.9563 256.406V19.8606Z" fill="#FED762"/>
</g>
<path d="M27.9565 19.8626C27.9565 8.89277 36.8493 0 47.8191 0H139.362C143.869 0 148.242 1.53283 151.763 4.3467L181.583 28.1797L212.096 53.2176C216.694 56.9903 219.359 62.625 219.359 68.5726V166.123C219.359 177.093 210.467 185.986 199.497 185.986H47.8191C36.8493 185.986 27.9565 177.093 27.9565 166.123V19.8626Z" fill="#FED762"/>
<rect x="62.2646" y="142.648" width="124.592" height="75.8389" rx="9.02844" fill="white"/>
<path d="M176.059 232.186C176.059 233.794 174.114 234.6 172.976 233.462L154.39 214.877L176.059 214.877L176.059 232.186Z" fill="white"/>
</svg>
